<?xml version="1.0" encoding="utf-8"?>
<!DOCTYPE svg PUBLIC "-//W3C//DTD SVG 1.0//EN" "http://www.w3.org/TR/2001/REC-SVG-20010904/DTD/svg10.dtd">
<svg version="1.0" xmlns="http://www.w3.org/2000/svg" width="892px" height="739px" viewBox="0 0 892 739" preserveAspectRatio="xMidYMid meet">
 <g fill="#ffffff">
  <path d="M582.99 636.59 c-17.92 -0.64 -40.54 -4.06 -60.13 -9 -39.42 -10.03 -78.13 -26.20 -130.22 -54.40 -15.13 -8.20 -75.66 -41.81 -79.88 -44.44 -2.07 -1.19 -2.71 -1.27 -4.46 -0.40 -1.12 0.64 -6.93 2.71 -12.82 4.70 -34.49 11.63 -72.63 13.54 -109.83 5.73 -33.93 -7.17 -62.52 -21.90 -85.54 -44.20 -10.99 -10.59 -16.96 -17.76 -24.61 -29.47 -16.41 -25.09 -26.52 -53.44 -30.58 -85.78 -1.67 -13.70 -1.67 -38.39 0 -50.02 6.53 -43.88 27.16 -84.98 57.18 -113.89 33.05 -31.86 75.42 -48.74 126.07 -50.33 46.27 -1.43 88.80 9.96 123.69 32.97 35.12 23.26 59.33 59.10 68.97 102.26 13.14 58.86 0.72 116.76 -35.44 165.42 -7.25 9.72 -26.60 29.15 -36.32 36.40 -5.65 4.30 -7.17 5.73 -6.37 6.45 1.27 1.19 58.22 30.82 89.36 46.51 55.91 28.11 96.37 43.25 141.68 52.88 58.14 12.42 109.67 9.40 160.56 -9.40 5.42 -1.99 10.51 -3.66 11.31 -3.66 1.83 0 3.98 3.35 3.35 5.10 -0.64 1.67 -5.02 3.90 -18.64 9.48 -28.59 11.71 -61.80 20.39 -93.42 24.45 -12.42 1.59 -37.51 3.27 -44.36 3.03 -1.99 -0.08 -6.29 -0.24 -9.56 -0.40z m-313.32 -114.45 c26.04 -5.50 47.79 -16.88 65.23 -34.33 21.90 -21.98 35.20 -50.89 41.02 -89.20 2.23 -14.42 3.03 -46.35 1.67 -61.80 -5.42 -59.10 -30.34 -105.37 -71.36 -132.37 -29.55 -19.43 -65.63 -26.68 -101.54 -20.55 -36.32 6.29 -65.07 23.81 -85.70 52.33 -10.11 13.94 -19.83 36.64 -24.13 56.47 -7.01 32.10 -6.29 70.56 1.99 104.73 3.90 16.17 7.49 26.36 14.18 40.22 11.95 24.53 25.80 41.89 45.64 56.94 20.87 15.93 44.60 25.72 71.12 29.47 9.48 1.27 31.14 0.32 41.89 -1.91z"/>
  <path d="M670.99 543.40 c-25.01 -1.04 -54.16 -6.13 -75.10 -12.98 -39.26 -12.82 -73.75 -38.23 -94.70 -69.69 -15.77 -23.65 -24.37 -46.43 -29.47 -78.13 -1.12 -6.85 -1.43 -13.30 -1.35 -30.58 0 -20.07 0.16 -22.86 2.07 -33.45 6.29 -34.25 20.31 -65.47 40.06 -89.12 26.04 -31.14 59.17 -50.41 101.39 -58.94 20.47 -4.14 32.18 -5.26 58.30 -5.18 26.52 0 40.22 1.12 70.09 5.57 10.27 1.59 26.76 3.98 36.56 5.42 19.99 2.95 20.39 3.11 19.59 8.84 -0.72 5.57 -1.99 32.49 -2.79 58.14 -0.40 13.62 -0.96 25.33 -1.19 26.12 -1.04 2.55 -6.13 2.63 -7.09 0.08 -0.24 -0.64 -0.80 -5.18 -1.27 -10.11 -2.07 -21.50 -6.77 -33.77 -16.96 -44.20 -14.65 -14.89 -42.77 -26.12 -77.01 -30.58 -11.39 -1.43 -41.33 -1.19 -53.36 0.40 -20.95 2.95 -36.16 7.17 -51.45 14.42 -25.65 12.19 -43.88 30.82 -56.94 58.22 -18 37.75 -21.66 92.86 -9 136.83 16.01 55.59 60.69 101.94 113.89 118.03 40.86 12.42 94.22 10.67 122.17 -3.98 16.88 -8.92 26.84 -23.81 33.05 -49.62 1.51 -5.97 2.63 -9.24 3.58 -9.72 2.07 -1.12 4.78 0 5.26 2.15 1.59 6.37 -5.50 53.04 -10.51 68.81 -2.71 8.52 -4.54 10.35 -13.22 12.98 -25.41 7.80 -67.14 11.87 -104.57 10.27z"/>
 </g>
</svg>